<?xml version="1.0" standalone="no"?>
<!DOCTYPE svg PUBLIC "-//W3C//DTD SVG 20010904//EN"
 "http://www.w3.org/TR/2001/REC-SVG-20010904/DTD/svg10.dtd">
<svg version="1.0" xmlns="http://www.w3.org/2000/svg"
 width="1324.000000pt" height="1690.000000pt" viewBox="0 0 1324.000000 1690.000000"
 preserveAspectRatio="xMidYMid meet">

<g transform="translate(0.000000,1690.000000) scale(0.100000,-0.100000)"
fill="#fff" stroke="none">
<path d="M8812 16649 c-392 -32 -836 -206 -1212 -472 -316 -225 -640 -554
-873 -889 -260 -372 -463 -807 -602 -1288 -125 -434 -178 -772 -260 -1650 -60
-646 -103 -976 -171 -1320 -153 -766 -419 -1384 -810 -1886 -172 -221 -332
-385 -578 -594 -286 -243 -380 -475 -225 -553 66 -32 144 -40 339 -32 102 5
262 8 355 8 157 1 176 -1 250 -26 227 -75 389 -251 480 -522 184 -548 93
-1530 -265 -2873 -198 -738 -422 -1435 -848 -2627 -217 -609 -270 -780 -328
-1068 -30 -149 -43 -390 -25 -464 25 -100 63 -143 123 -143 51 0 131 51 213
133 127 129 1037 1316 1450 1892 1110 1549 1630 2796 1849 4435 82 612 110
1088 110 1855 0 879 -29 1349 -179 2840 -116 1153 -138 1427 -156 1907 -26
679 32 1222 176 1638 80 231 221 475 366 635 79 87 107 111 95 79 -52 -134
-72 -437 -41 -611 96 -537 489 -942 1026 -1059 102 -22 316 -30 420 -15 570
81 998 483 1125 1056 24 110 29 323 10 431 -32 186 -108 369 -217 524 -69 99
-233 260 -344 339 -109 76 -336 190 -464 231 -127 41 -310 77 -456 89 -135 12
-185 12 -333 0z"/>
<path d="M5853 14398 l-183 -183 -485 -2429 c-267 -1335 -485 -2430 -483
-2431 5 -5 101 132 172 245 83 132 210 381 270 527 43 106 57 168 236 1055
l190 943 35 360 c71 737 116 1033 221 1445 41 161 141 472 192 598 12 28 21
52 19 52 -1 0 -84 -82 -184 -182z"/>
<path d="M7806 13959 c-3 -7 -25 -117 -51 -244 l-45 -230 10 -235 c15 -330 58
-909 69 -922 3 -4 69 306 145 688 l139 696 -131 131 c-88 88 -133 126 -136
116z"/>
<path d="M4988 13532 l-196 -197 -496 -2474 c-273 -1361 -494 -2476 -493
-2477 2 -2 27 34 57 79 54 82 187 223 288 308 l54 45 493 2454 c271 1350 492
2456 491 2457 -1 1 -90 -86 -198 -195z"/>
<path d="M8425 13329 c-3 -13 -115 -574 -250 -1246 l-244 -1221 24 -259 c13
-142 31 -359 40 -483 9 -124 19 -255 23 -292 7 -64 24 15 341 1598 l335 1665
-132 131 c-121 121 -131 130 -137 107z"/>
<path d="M4062 12607 l-193 -193 -595 -2969 -596 -2968 129 -129 c104 -105
129 -125 135 -111 12 29 1320 6554 1315 6559 -2 2 -90 -83 -195 -189z"/>
<path d="M8542 10223 c-473 -2355 -504 -2517 -513 -2663 -67 -1074 -261 -2051
-574 -2895 -62 -168 -65 -181 -209 -899 -80 -401 -144 -731 -143 -732 2 -2 89
83 195 189 l192 192 910 4530 909 4530 -127 128 c-70 70 -129 127 -132 127 -3
0 -232 -1128 -508 -2507z"/>
<path d="M9630 12150 c0 -7 -519 -2597 -1154 -5764 -273 -1358 -495 -2471
-493 -2472 2 -2 89 83 195 189 l192 193 515 2564 c284 1411 627 3120 763 3797
l247 1233 -132 132 c-73 73 -133 131 -133 128z"/>
<path d="M3131 11676 l-193 -194 -439 -2193 -439 -2194 130 -129 c87 -88 131
-125 134 -115 9 25 1006 5012 1003 5015 -2 2 -90 -84 -196 -190z"/>
<path d="M10250 11530 c0 -5 -943 -4700 -1245 -6200 -52 -261 -94 -478 -93
-482 2 -5 90 79 195 184 l193 193 490 2440 c270 1342 543 2702 608 3022 l117
583 -132 132 c-73 73 -133 131 -133 128z"/>
<path d="M2251 10796 l-193 -193 -292 -1461 -293 -1460 131 -131 131 -131 358
1781 c197 980 356 1783 354 1785 -1 2 -90 -84 -196 -190z"/>
<path d="M10348 8333 l-516 -2576 198 199 198 199 451 2250 451 2250 -127 127
c-70 71 -130 128 -133 128 -3 0 -237 -1160 -522 -2577z"/>
<path d="M11450 10324 c0 -6 -166 -838 -369 -1849 l-369 -1838 198 199 198
199 301 1501 c166 826 301 1510 301 1520 0 11 -54 73 -130 149 -71 71 -130
125 -130 119z"/>
<path d="M1329 9872 l-196 -197 -138 -688 -138 -688 128 -129 c71 -71 131
-127 133 -125 5 4 411 2019 408 2022 -1 1 -90 -86 -197 -195z"/>
<path d="M12070 9705 c0 -6 -97 -489 -214 -1074 l-214 -1064 198 198 198 197
148 744 149 744 -133 132 c-72 73 -132 128 -132 123z"/>
<path d="M450 8995 l-145 -145 95 -95 c52 -52 96 -92 99 -89 6 6 101 467 97
471 -1 1 -67 -63 -146 -142z"/>
<path d="M12686 9079 c-9 -25 -116 -572 -113 -575 2 -2 83 76 180 174 l177
177 -120 120 c-80 80 -121 114 -124 104z"/>
<path d="M3514 6960 l-221 -1098 132 -132 132 -131 211 1058 c117 582 212
1065 212 1073 0 8 -20 26 -45 39 -84 44 -163 149 -189 248 -10 39 -27 -36
-232 -1057z"/>
<path d="M4595 7699 c-22 -4 -83 -8 -135 -8 l-95 -1 -243 -1207 -243 -1207
130 -130 c88 -88 132 -125 135 -115 6 17 536 2657 536 2670 0 11 -29 10 -85
-2z"/>
<path d="M5087 7585 c-3 -11 -137 -674 -297 -1474 l-292 -1454 128 -128 c105
-106 130 -126 136 -112 4 10 127 614 273 1343 294 1460 278 1356 230 1525 -32
114 -83 219 -133 276 -35 38 -40 41 -45 24z"/>
<path d="M6562 2887 l-113 -181 63 -63 c34 -34 64 -60 66 -58 5 4 102 479 99
481 -1 1 -53 -79 -115 -179z"/>
</g>
</svg>
